<?xml version="1.0" standalone="no"?>
<!DOCTYPE svg PUBLIC "-//W3C//DTD SVG 20010904//EN"
 "http://www.w3.org/TR/2001/REC-SVG-20010904/DTD/svg10.dtd">
<svg version="1.0" xmlns="http://www.w3.org/2000/svg"
 width="300.000000pt" height="282.000000pt" viewBox="0 0 300.000000 282.000000"
 preserveAspectRatio="xMidYMid meet">
<metadata>
Created by potrace 1.10, written by Peter Selinger 2001-2011
</metadata>
<g transform="translate(0.000000,282.000000) scale(0.100000,-0.100000)"
fill="#000000" stroke="none">
<path d="M619 2541 c-23 -23 -29 -38 -29 -71 0 -57 33 -90 92 -90 47 1 64 11
91 53 l18 27 221 -2 222 -3 56 -90 c31 -49 66 -106 78 -126 l22 -36 -63 -23
c-34 -12 -76 -31 -93 -41 l-30 -18 -94 94 c-128 128 -127 128 -269 -6 -161
-154 -162 -156 -55 -271 l76 -83 -207 -3 -208 -2 -34 35 c-53 54 -126 47 -158
-15 -23 -44 -19 -78 14 -111 39 -39 100 -41 136 -4 14 13 25 29 25 35 0 7 75
10 224 10 l223 0 -33 -81 c-18 -45 -35 -90 -37 -100 -5 -17 -17 -19 -122 -19
-128 0 -169 -12 -185 -56 -13 -33 -13 -275 0 -308 18 -49 53 -61 186 -64 l122
-4 20 -51 c10 -29 27 -69 36 -90 l16 -37 -211 0 -210 0 -33 35 c-44 47 -94 49
-137 6 -38 -39 -39 -87 -3 -130 22 -26 33 -31 70 -31 34 0 51 6 69 25 14 13
25 29 25 35 0 6 70 10 207 10 l206 0 -76 -79 c-71 -72 -77 -82 -77 -120 0 -39
5 -47 111 -151 104 -104 112 -110 151 -110 38 0 47 6 137 94 l96 94 40 -20
c22 -12 62 -29 90 -39 27 -9 51 -21 52 -26 1 -4 -28 -66 -65 -138 l-68 -130
-207 -3 c-142 -2 -207 1 -207 8 0 6 -11 22 -25 35 -71 71 -193 -12 -155 -106
17 -40 46 -59 93 -59 37 0 87 34 87 60 0 6 72 10 214 10 167 0 218 3 228 13 7
8 36 60 63 116 l50 103 5 -92 c5 -85 7 -94 33 -116 24 -20 39 -24 98 -24 l69
0 -2 268 -3 267 -55 6 c-236 25 -445 211 -506 450 -24 95 -15 262 19 351 84
218 267 362 500 393 l47 6 0 261 0 260 -75 -4 c-105 -5 -116 -18 -124 -140
l-6 -93 -65 105 -66 105 -238 3 -238 2 -33 35 c-43 47 -93 49 -136 6z"/>
<path d="M1657 2513 c-12 -11 -8 -351 4 -358 5 -4 22 -4 35 -1 19 5 24 11 19
24 -13 31 -17 147 -6 175 12 30 37 45 52 30 6 -6 6 -25 -2 -54 -9 -35 -9 -57
2 -108 l14 -64 93 -23 c142 -35 207 -81 247 -177 19 -47 20 -143 1 -150 -22
-9 -36 14 -36 58 0 50 -28 111 -68 149 -27 25 -36 28 -69 23 -42 -7 -106 -49
-136 -89 -11 -14 -25 -48 -32 -75 -8 -30 -18 -49 -29 -51 -24 -5 -31 25 -18
75 17 62 55 115 108 148 38 24 43 30 28 38 -9 5 -60 10 -113 11 l-96 1 -3
-380 c-1 -209 0 -385 2 -392 6 -15 79 6 147 44 84 45 100 115 43 183 -26 31
-26 60 0 60 19 0 59 -48 76 -91 7 -19 14 -35 16 -37 1 -2 23 7 48 19 45 21
109 85 103 102 -1 5 -21 15 -42 23 -67 22 -134 124 -105 159 20 24 29 18 49
-27 21 -49 43 -72 84 -87 26 -10 29 -9 43 25 10 24 20 34 32 32 25 -5 19 -79
-13 -144 -31 -64 -92 -119 -158 -142 -33 -12 -54 -27 -67 -49 -10 -17 -38 -44
-62 -59 -24 -16 -45 -30 -47 -31 -3 -2 1 -9 7 -15 17 -17 15 -93 -3 -108 -24
-20 -45 4 -38 44 8 48 -14 62 -69 44 l-43 -15 0 -139 0 -139 40 2 c22 2 59 10
82 18 58 22 136 110 158 177 21 63 27 71 48 62 22 -8 21 -32 -3 -94 -11 -28
-20 -53 -20 -55 0 -9 77 -25 118 -25 61 0 98 22 106 62 9 51 43 98 81 114 32
13 35 18 35 56 0 53 -30 116 -76 157 -19 18 -33 38 -31 44 8 24 40 18 72 -13
18 -17 35 -27 39 -22 3 5 11 44 17 86 14 95 -6 232 -51 340 -25 58 -29 80 -24
117 11 77 -19 114 -108 133 -19 4 -28 13 -28 26 0 16 7 20 38 20 48 0 101 -28
130 -70 17 -25 22 -47 22 -94 0 -44 8 -82 29 -136 l29 -75 49 -3 c29 -2 55 2
67 11 17 12 17 17 5 51 -17 47 -71 111 -110 132 -31 16 -38 41 -14 50 8 3 31
-3 51 -15 l36 -21 30 25 c49 41 132 26 114 -20 -4 -12 -14 -14 -39 -10 -25 5
-37 2 -50 -13 -17 -18 -16 -22 13 -77 58 -109 28 -165 -89 -165 l-49 0 5 -92
c4 -69 0 -113 -13 -168 -17 -77 -19 -96 -13 -186 l4 -52 56 -5 c113 -10 206
-72 228 -154 15 -51 14 -68 -4 -83 -23 -19 -45 5 -45 47 0 75 -74 129 -194
140 -106 10 -149 -13 -161 -88 -10 -60 -59 -92 -146 -97 -45 -3 -84 1 -115 12
l-47 16 -38 -35 c-47 -42 -95 -64 -174 -79 l-60 -12 -3 -309 c-1 -171 0 -316
3 -323 4 -12 10 -11 32 4 15 9 35 27 44 38 16 19 19 19 60 6 144 -48 410 19
662 167 99 58 127 93 127 160 0 47 2 52 30 63 17 7 30 16 30 20 0 4 20 30 45
56 93 100 155 277 139 392 -4 31 -8 113 -9 182 0 72 -5 143 -13 168 -12 39
-15 42 -40 36 -15 -4 -41 -13 -57 -20 -27 -13 -35 -12 -70 6 -29 15 -59 20
-113 20 -70 0 -73 1 -70 22 2 18 12 24 46 30 46 8 137 -5 157 -22 8 -7 23 -6
44 1 17 6 43 9 56 6 24 -4 25 -2 25 42 0 92 -42 203 -115 307 -25 36 -45 68
-45 73 0 24 -68 104 -127 149 -37 29 -89 69 -115 90 -67 53 -265 125 -407 147
-23 4 -64 20 -90 36 -58 36 -206 71 -224 52z m549 -224 c11 -19 86 -47 157
-59 53 -10 67 -16 67 -30 0 -26 -22 -31 -87 -19 -114 20 -194 66 -180 103 7
18 33 21 43 5z m-140 -1429 c87 -55 239 -66 246 -17 3 22 48 39 48 18 0 -27
55 -72 106 -87 60 -17 73 -29 52 -50 -12 -12 -21 -12 -63 1 -28 8 -63 23 -78
34 -24 15 -36 17 -70 9 -23 -5 -70 -8 -104 -6 l-62 3 -35 -47 c-52 -68 -128
-102 -227 -103 -51 0 -81 5 -93 14 -28 24 -2 35 82 36 90 1 140 23 191 81 l33
37 -46 30 c-42 27 -57 53 -39 70 9 10 7 10 59 -23z"/>
<path d="M1460 1921 c-96 -31 -163 -72 -230 -140 -108 -109 -160 -235 -160
-386 0 -151 52 -277 161 -386 90 -91 234 -159 337 -159 30 0 32 2 32 34 0 34
0 34 -62 45 -196 34 -357 198 -389 397 -40 245 135 489 385 536 65 12 66 13
66 45 0 32 -1 33 -42 32 -24 0 -68 -8 -98 -18z"/>
<path d="M1511 1804 c-123 -33 -218 -113 -274 -232 -30 -63 -32 -74 -32 -178
0 -107 1 -112 38 -186 59 -121 166 -202 295 -226 40 -7 55 -7 58 2 3 7 3 57 2
111 l-3 98 -30 10 c-121 39 -174 182 -106 290 29 44 90 87 126 87 13 0 15 19
15 120 0 136 6 130 -89 104z"/>
<path d="M1551 1512 c-89 -48 -93 -191 -7 -243 55 -34 56 -32 56 121 0 77 -3
140 -8 140 -4 0 -23 -8 -41 -18z"/>
</g>
</svg>
