<?xml version="1.0" standalone="no"?>
<!DOCTYPE svg PUBLIC "-//W3C//DTD SVG 20010904//EN"
 "http://www.w3.org/TR/2001/REC-SVG-20010904/DTD/svg10.dtd">
<svg version="1.0" xmlns="http://www.w3.org/2000/svg"
 width="300.000000pt" height="300.000000pt" viewBox="0 0 300.000000 300.000000"
 preserveAspectRatio="xMidYMid meet">
<metadata>
Created by potrace 1.10, written by Peter Selinger 2001-2011
</metadata>
<g transform="translate(0.000000,300.000000) scale(0.100000,-0.100000)"
fill="#000000" stroke="none">
<path d="M1923 2978 c-14 -16 -26 -54 -38 -120 -12 -70 -21 -98 -32 -98 -7 0
-49 -16 -92 -36 l-78 -36 -78 56 c-103 74 -116 74 -204 -9 -38 -36 -74 -79
-81 -96 -15 -36 -6 -59 61 -151 l42 -57 -31 -71 c-18 -38 -32 -77 -32 -84 0
-29 -31 -44 -112 -56 -128 -18 -128 -18 -128 -158 0 -82 4 -124 13 -136 9 -12
44 -24 111 -36 93 -17 115 -28 116 -57 0 -7 14 -44 31 -83 l32 -71 -39 -55
c-66 -93 -76 -113 -70 -137 8 -32 159 -177 184 -177 12 0 57 25 102 55 l81 56
92 -37 c51 -20 95 -39 99 -43 3 -3 13 -46 21 -94 21 -125 23 -127 167 -127
140 0 144 3 160 105 19 125 17 121 63 135 23 7 67 25 97 40 l55 28 77 -54
c103 -73 120 -73 205 9 73 70 97 108 87 139 -3 11 -30 54 -59 95 l-54 74 24
47 c12 26 29 65 36 87 17 53 29 62 97 70 87 10 131 24 142 45 5 10 10 66 10
123 0 138 -3 142 -134 165 -96 16 -100 18 -109 47 -5 17 -23 60 -39 96 l-30
66 56 78 c32 45 56 89 56 103 0 17 -23 48 -79 105 -98 101 -108 102 -217 25
l-79 -56 -35 19 c-19 10 -62 27 -96 39 l-61 21 -16 97 c-22 129 -25 132 -166
132 -99 0 -109 -2 -128 -22z m301 -556 c85 -40 158 -113 199 -200 30 -62 32
-75 32 -172 0 -99 -2 -109 -34 -172 -81 -163 -263 -259 -433 -229 -176 31
-311 169 -340 347 -27 160 69 344 217 419 77 39 107 45 207 41 71 -3 98 -9
152 -34z"/>
<path d="M1955 2272 c-155 -74 -190 -268 -69 -388 96 -97 244 -94 342 7 47 48
66 106 60 183 -7 77 -41 136 -107 180 -58 39 -164 47 -226 18z"/>
<path d="M941 1521 c-7 -5 -32 -39 -56 -76 l-43 -68 -85 -1 -85 -1 -46 73
c-42 65 -49 72 -79 72 -17 -1 -66 -18 -107 -38 -87 -43 -91 -53 -66 -162 l16
-65 -63 -63 -63 -63 -64 15 c-114 27 -116 26 -155 -57 -61 -132 -60 -138 47
-203 l58 -35 0 -80 c0 -43 1 -82 3 -86 1 -5 -29 -28 -66 -53 -38 -25 -73 -53
-78 -62 -7 -13 -1 -38 22 -95 50 -123 57 -126 179 -97 l64 15 63 -63 62 -63
-15 -64 c-8 -35 -14 -78 -12 -95 3 -29 9 -34 92 -69 53 -23 96 -35 108 -32 10
4 40 38 66 77 l47 70 87 1 87 2 48 -70 c30 -44 56 -71 69 -73 31 -4 173 58
189 82 12 18 11 33 -4 102 l-18 80 58 62 c32 34 66 62 75 62 9 0 43 -7 77 -16
90 -23 99 -18 141 83 22 52 35 96 32 109 -4 13 -35 40 -78 67 l-73 45 1 86 0
86 70 48 c43 29 70 55 72 68 5 32 -58 173 -83 190 -19 13 -32 12 -102 -4 l-80
-19 -62 60 c-33 32 -61 64 -61 70 0 7 7 45 17 85 16 71 16 73 -3 92 -18 19
-156 80 -178 80 -6 0 -17 -4 -25 -9z m-60 -491 c97 -50 159 -144 167 -250 4
-58 1 -76 -22 -126 -54 -119 -141 -176 -266 -177 -90 0 -155 28 -213 92 -61
67 -72 96 -72 191 0 70 4 93 23 130 47 90 121 146 211 159 54 8 138 -2 172
-19z"/>
</g>
</svg>
