<?xml version="1.0" standalone="no"?>
<!DOCTYPE svg PUBLIC "-//W3C//DTD SVG 20010904//EN"
 "http://www.w3.org/TR/2001/REC-SVG-20010904/DTD/svg10.dtd">
<svg version="1.0" xmlns="http://www.w3.org/2000/svg"
 width="300.000000pt" height="262.000000pt" viewBox="0 0 300.000000 262.000000"
 preserveAspectRatio="xMidYMid meet">
<metadata>
Created by potrace 1.10, written by Peter Selinger 2001-2011
</metadata>
<g transform="translate(0.000000,262.000000) scale(0.100000,-0.100000)"
fill="#000000" stroke="none">
<path d="M1576 2263 c-3 -4 22 -32 56 -64 35 -31 61 -59 58 -62 -3 -3 -91 -48
-197 -101 l-192 -95 -87 -148 c-48 -82 -92 -153 -98 -159 -8 -9 -63 10 -211
72 -110 46 -205 83 -211 84 -6 0 -23 -9 -38 -21 -31 -24 -35 -68 -8 -91 9 -9
124 -60 256 -114 223 -92 240 -97 263 -83 14 8 68 88 126 188 l103 175 181 87
181 87 7 -84 c5 -52 12 -84 19 -84 12 1 309 384 314 407 3 11 -43 13 -256 13
-142 0 -262 -3 -266 -7z"/>
<path d="M2090 1970 c-20 -20 -20 -33 -20 -651 0 -415 4 -637 10 -650 10 -17
23 -19 151 -19 l139 0 10 26 c7 17 9 255 8 656 -3 610 -4 630 -22 644 -15 10
-52 14 -138 14 -105 0 -120 -2 -138 -20z"/>
<path d="M1650 1620 c-19 -19 -20 -33 -20 -478 0 -352 3 -462 13 -475 11 -15
29 -17 152 -15 l140 3 3 480 c2 442 1 481 -15 493 -11 8 -56 12 -135 12 -105
0 -120 -2 -138 -20z"/>
<path d="M766 1304 c-14 -13 -16 -57 -16 -323 0 -251 3 -311 14 -320 9 -8 59
-11 152 -9 l139 3 3 319 c2 227 -1 323 -9 332 -18 22 -262 20 -283 -2z"/>
<path d="M1200 1121 c-15 -30 -13 -433 3 -454 11 -15 29 -17 152 -15 l140 3 3
234 c2 181 -1 236 -10 243 -7 4 -72 8 -145 8 -121 0 -133 -2 -143 -19z"/>
<path d="M653 506 c-17 -8 -36 -23 -42 -35 -19 -35 -13 -88 13 -118 l24 -28
904 -3 c666 -2 910 1 931 9 31 13 57 55 57 93 0 14 -13 40 -29 58 l-29 33
-899 2 c-748 2 -903 0 -930 -11z"/>
</g>
</svg>
