<?xml version="1.0" standalone="no"?>
<!DOCTYPE svg PUBLIC "-//W3C//DTD SVG 20010904//EN"
 "http://www.w3.org/TR/2001/REC-SVG-20010904/DTD/svg10.dtd">
<svg version="1.0" xmlns="http://www.w3.org/2000/svg"
 width="300.000000pt" height="271.000000pt" viewBox="0 0 300.000000 271.000000"
 preserveAspectRatio="xMidYMid meet">
<metadata>
Created by potrace 1.10, written by Peter Selinger 2001-2011
</metadata>
<g transform="translate(0.000000,271.000000) scale(0.100000,-0.100000)"
fill="#000000" stroke="none">
<path d="M995 2520 c-97 -40 -146 -66 -160 -84 -19 -27 -19 -27 4 -142 14 -67
20 -118 15 -123 -5 -4 -36 -31 -69 -59 -33 -28 -82 -78 -109 -110 l-49 -59
-99 24 c-123 28 -131 28 -162 1 -30 -28 -136 -281 -136 -326 0 -40 15 -55 115
-115 l80 -49 0 -173 0 -174 -80 -48 c-101 -61 -115 -75 -115 -117 0 -51 110
-305 143 -330 27 -20 28 -20 115 -2 152 33 141 35 195 -33 27 -33 79 -86 116
-117 l67 -57 -23 -96 c-29 -119 -29 -134 -1 -165 27 -29 283 -136 327 -136 34
0 59 26 123 130 l43 70 73 -2 c59 -2 77 2 99 18 36 27 41 48 42 182 l1 112
150 0 c137 0 152 -2 170 -20 14 -14 20 -33 20 -62 -1 -42 -3 -44 -50 -66 -65
-31 -103 -91 -103 -165 -2 -229 324 -271 383 -49 22 85 -23 183 -102 220 -45
21 -46 22 -50 77 -5 64 -28 102 -79 127 -28 15 -61 18 -186 18 l-153 0 0 110
0 110 346 0 345 0 50 -48 c47 -44 50 -49 40 -75 -31 -81 3 -181 77 -228 86
-54 198 -35 263 44 25 32 42 101 36 148 -17 125 -165 202 -280 145 l-38 -19
-47 45 c-26 25 -57 51 -69 57 -15 7 -134 11 -372 11 l-351 0 0 170 c0 155 2
170 18 171 32 1 467 1 499 0 27 -1 35 -7 47 -33 17 -40 71 -93 109 -107 71
-27 170 -1 219 57 132 157 -42 389 -227 303 -45 -21 -86 -61 -106 -106 l-14
-30 -273 -2 -272 -1 0 174 0 174 351 0 c238 0 357 4 372 11 12 6 43 32 69 57
l47 45 38 -19 c85 -42 192 -14 247 63 52 74 45 169 -17 240 -40 45 -82 63
-150 63 -129 0 -222 -136 -176 -257 10 -26 7 -31 -40 -75 l-50 -48 -345 0
-346 0 0 110 0 110 159 0 c148 0 160 1 192 23 42 28 69 79 69 133 0 39 3 43
47 66 132 68 145 248 24 333 -37 26 -51 30 -110 30 -57 0 -74 -4 -109 -28
-123 -81 -111 -268 21 -335 44 -23 47 -27 47 -63 0 -26 -7 -46 -20 -59 -18
-18 -33 -20 -170 -20 l-150 0 0 110 c0 176 -22 205 -146 201 l-71 -2 -44 73
c-65 107 -85 128 -122 127 -18 0 -95 -27 -172 -59z m228 -114 c65 -107 80
-116 170 -106 40 4 61 2 68 -6 5 -7 8 -74 7 -165 l-3 -154 -84 -17 c-47 -10
-121 -35 -170 -59 -121 -58 -240 -177 -300 -299 -94 -192 -95 -398 -2 -585 94
-190 262 -319 471 -363 l85 -19 3 -152 c1 -91 -2 -158 -7 -165 -7 -8 -28 -10
-68 -6 -88 10 -104 1 -168 -100 -31 -49 -60 -92 -64 -95 -8 -4 -238 90 -253
104 -4 3 4 53 18 111 28 120 25 141 -31 179 -19 13 -82 73 -139 132 -57 60
-108 109 -113 109 -6 0 -59 -11 -119 -25 -60 -13 -109 -23 -110 -22 -3 3 -104
257 -104 261 0 2 43 29 95 61 52 31 96 60 96 64 1 3 2 100 3 214 2 134 -2 213
-8 221 -6 7 -49 37 -96 66 -47 29 -87 55 -89 56 -5 4 100 253 108 259 4 2 53
-8 111 -21 119 -28 141 -25 178 30 23 34 145 155 193 192 49 37 53 55 29 162
-12 53 -22 104 -23 112 -1 10 38 31 123 66 69 29 127 53 130 53 3 1 32 -41 63
-93z m780 64 c41 -35 52 -79 33 -123 -22 -52 -52 -72 -106 -72 -55 0 -84 20
-107 73 -18 43 -4 91 38 127 44 36 98 34 142 -5z m575 -416 c58 -40 65 -123
16 -175 -36 -38 -82 -46 -128 -24 -43 21 -66 59 -66 111 0 28 8 44 34 70 28
28 41 34 78 34 24 0 54 -7 66 -16z m-1116 -749 l3 -580 -45 3 c-107 9 -250 83
-339 177 -173 185 -209 446 -94 669 47 90 155 199 240 244 59 31 194 73 220
69 9 -2 13 -137 15 -582z m889 99 c31 -15 59 -66 59 -104 0 -35 -28 -79 -62
-96 -76 -39 -168 14 -168 97 0 51 13 75 53 99 39 24 78 25 118 4z m244 -674
c25 -26 30 -38 30 -81 0 -45 -4 -54 -33 -80 -26 -23 -42 -29 -78 -29 -39 0
-51 5 -80 34 -26 26 -34 42 -34 70 0 111 118 163 195 86z m-593 -417 c44 -39
56 -112 25 -153 -59 -78 -176 -59 -207 34 -16 50 14 115 65 137 30 13 94 3
117 -18z"/>
</g>
</svg>
